<svg xmlns="http://www.w3.org/2000/svg" viewBox="0 0 24 24" width="128" height="128" fill="none" stroke="#a855f7" stroke-width="2" stroke-linecap="round" stroke-linejoin="round">
  <!-- Glowing circular background -->
  <circle cx="12" cy="12" r="10" fill="#0f0b21" stroke="#3b82f6" stroke-width="1.5" />
  <!-- Microphone -->
  <path d="M12 5a3 3 0 0 0-3 3v5a3 3 0 0 0 6 0V8a3 3 0 0 0-3-3Z" fill="#a855f7" />
  <path d="M19 11v1a7 7 0 0 1-14 0v-1" />
  <line x1="12" x2="12" y1="18" y2="21" />
  <!-- Speech wave/translation curves -->
  <path d="M17 6a6 6 0 0 1 2 2" stroke="#3b82f6" stroke-width="1.5" />
  <path d="M7 6a6 6 0 0 0-2 2" stroke="#3b82f6" stroke-width="1.5" />
</svg>
